HIERARCHY
ROOT Hips
{
 OFFSET 0.000000 0.000000 0.000000
 CHANNELS 6 Xposition Yposition Zposition Yrotation Xrotation Zrotation
 JOINT Chest
 {
  OFFSET 0.000000 10.080317 -0.001081
  CHANNELS 3 Yrotation Xrotation Zrotation
  JOINT Chest2
  {
   OFFSET 0.000000 11.096852 0.001963
   CHANNELS 3 Yrotation Xrotation Zrotation
   JOINT Chest3
   {
    OFFSET 0.000000 10.026525 0.000000
    CHANNELS 3 Yrotation Xrotation Zrotation
    JOINT Chest4
    {
     OFFSET 0.000000 10.026525 0.000000
     CHANNELS 3 Yrotation Xrotation Zrotation
     JOINT Neck
     {
      OFFSET 0.000000 14.108171 0.000000
      CHANNELS 3 Yrotation Xrotation Zrotation
      JOINT Head
      {
       OFFSET 0.000000 9.333493 0.004668
       CHANNELS 3 Yrotation Xrotation Zrotation
       End Site
       {
        OFFSET 0.000000 17.851786 0.002438
       }
      }
     }
     JOINT RightCollar
     {
      OFFSET -3.071622 7.873185 0.000000
      CHANNELS 3 Yrotation Xrotation Zrotation
      JOINT RightShoulder
      {
       OFFSET -14.378659 0.000000 0.000000
       CHANNELS 3 Yrotation Xrotation Zrotation
       JOINT RightElbow
       {
        OFFSET -30.778728 0.000000 0.000000
        CHANNELS 3 Yrotation Xrotation Zrotation
        JOINT RightWrist
        {
         OFFSET -25.164217 0.000000 0.000000
         CHANNELS 3 Yrotation Xrotation Zrotation
         End Site
         {
          OFFSET -18.796788 0.000000 0.000000
         }
        }
       }
      }
     }
     JOINT LeftCollar
     {
      OFFSET 3.071622 7.873185 0.000000
      CHANNELS 3 Yrotation Xrotation Zrotation
      JOINT LeftShoulder
      {
       OFFSET 14.378659 0.000000 0.000000
       CHANNELS 3 Yrotation Xrotation Zrotation
       JOINT LeftElbow
       {
        OFFSET 30.778728 0.000000 0.000000
        CHANNELS 3 Yrotation Xrotation Zrotation
        JOINT LeftWrist
        {
         OFFSET 25.164217 0.000000 0.000000
         CHANNELS 3 Yrotation Xrotation Zrotation
         End Site
         {
          OFFSET 18.796788 0.000000 0.000000
         }
        }
       }
      }
     }
    }
   }
  }
 }
 JOINT RightHip
 {
  OFFSET -8.194923 0.005295 0.000540
  CHANNELS 3 Yrotation Xrotation Zrotation
  JOINT RightKnee
  {
   OFFSET 0.000000 -42.473320 -0.000511
   CHANNELS 3 Yrotation Xrotation Zrotation
   JOINT RightAnkle
   {
    OFFSET 0.000000 -41.474259 -0.000865
    CHANNELS 3 Yrotation Xrotation Zrotation
    JOINT RightToe
    {
     OFFSET 0.000000 -7.354994 16.712725
     CHANNELS 3 Yrotation Xrotation Zrotation
     End Site
     {
      OFFSET 0.000000 -1.553903 6.764158
     }
    }
   }
  }
 }
 JOINT LeftHip
 {
  OFFSET 8.194923 0.005295 0.000540
  CHANNELS 3 Yrotation Xrotation Zrotation
  JOINT LeftKnee
  {
   OFFSET 0.000000 -42.473320 -0.000511
   CHANNELS 3 Yrotation Xrotation Zrotation
   JOINT LeftAnkle
   {
    OFFSET 0.000000 -41.474259 -0.000865
    CHANNELS 3 Yrotation Xrotation Zrotation
    JOINT LeftToe
    {
     OFFSET 0.000000 -7.354994 16.712725
     CHANNELS 3 Yrotation Xrotation Zrotation
     End Site
     {
      OFFSET 0.000000 -1.553903 6.764158
     }
    }
   }
  }
 }
}
MOTION
Frames: 10
Frame Time: 0.016667
0.000000 91.111157 0.000000 0.000000 -5.826342 0.000000 0.000000 11.116423 0.000000 0.000000 -5.290081 0.000000 0.000000 0.000000 0.000000 0.000000 0.000000 0.000000 0.000000 12.665069 0.000000 0.000000 0.575450 0.000000 0.000000 0.000000 0.000000 0.000000 0.000000 0.000000 2.337306 0.000000 0.000000 -2.337306 0.000000 0.000000 0.000000 0.000000 0.000000 0.000000 0.000000 0.000000 -2.337306 0.000000 0.000000 2.337306 0.000000 0.000000 0.000000 8.578828 0.000000 0.000000 1.905768 0.000000 0.000000 -4.658254 0.000000 0.000000 0.000000 0.000000 0.000000 8.578828 0.000000 0.000000 1.905768 0.000000 0.000000 -4.658254 0.000000 0.000000 0.000000 0.000000
-53.412974 93.034320 64.599694 -5.565140 -5.651009 -0.139239 0.330211 2.865429 -0.230199 0.160792 1.274142 -0.130261 0.160792 1.274142 -0.130261 0.120861 0.955572 -0.098027 -0.619950 17.366662 1.493088 -1.658174 -3.903235 2.971316 -0.192533 0.658623 10.456948 -4.680520 -0.798796 72.969791 12.719855 7.902388 7.500632 -4.404807 -0.849912 -4.033897 -1.270122 0.415213 -5.922049 -3.558487 -7.558342 -72.543596 -11.620708 20.501660 -15.864478 3.825141 2.477878 13.289673 -8.819433 8.379793 -1.169683 0.166910 2.932129 0.807128 -12.485806 -4.354651 1.744564 -0.039423 0.077655 0.005798 0.712328 9.717491 0.534329 -3.663654 3.130409 -0.811791 1.788088 -5.875077 0.868739 0.024654 -0.084209 0.003935
-53.423456 93.034686 64.589021 -5.546636 -5.645468 -0.133761 0.328392 2.857785 -0.220891 0.158775 1.271272 -0.126374 0.158775 1.271272 -0.126374 0.119339 0.953421 -0.095107 -0.604357 17.360007 1.482957 -1.626083 -3.916348 2.947407 -0.180722 0.645404 10.477322 -4.678332 -0.814474 72.985102 12.774398 7.954002 7.529169 -4.400677 -0.863348 -4.056460 -1.274319 0.424121 -5.960327 -3.598243 -7.543863 -72.559513 -11.791766 20.780471 -15.965844 3.845264 2.519517 13.311642 -8.830856 8.373498 -1.175156 0.167825 2.923647 0.807886 -12.476854 -4.346689 1.744579 -0.036874 0.073896 -0.001402 0.710352 9.666558 0.538364 -3.690824 3.201946 -0.818518 1.799090 -5.897003 0.864015 0.022932 -0.088702 0.003919
-53.433468 93.035156 64.575187 -5.534422 -5.638509 -0.128530 0.323033 2.853424 -0.212478 0.157219 1.269873 -0.122013 0.157219 1.269873 -0.122013 0.118163 0.952374 -0.091833 -0.588480 17.347099 1.472957 -1.593680 -3.941067 2.923785 -0.188976 0.622936 10.499530 -4.668641 -0.825807 72.997630 12.855389 8.065112 7.574463 -4.387967 -0.848220 -4.095242 -1.287519 0.420921 -6.006948 -3.634406 -7.540587 -72.571252 -11.944197 21.038212 -16.051610 3.879713 2.544158 13.322712 -8.828765 8.358624 -1.162276 0.156278 2.925133 0.784449 -12.466791 -4.347596 1.743595 -0.037185 0.077280 0.000310 0.701059 9.624254 0.543781 -3.710838 3.249761 -0.830936 1.819543 -5.908817 0.860136 0.022212 -0.089967 0.005696
-53.446154 93.035998 64.563753 -5.523421 -5.634454 -0.125270 0.315364 2.855503 -0.202565 0.154644 1.270731 -0.118707 0.154644 1.270731 -0.118707 0.116225 0.953018 -0.089348 -0.576839 17.326105 1.463955 -1.569655 -3.980638 2.903642 -0.203863 0.588580 10.516271 -4.637486 -0.830908 73.011696 12.937259 8.218647 7.640521 -4.379380 -0.814379 -4.156537 -1.298955 0.395715 -6.043517 -3.663546 -7.518730 -72.592378 -12.112316 21.273852 -16.139133 3.919565 2.579364 13.353586 -8.811155 8.342080 -1.154208 0.141302 2.935701 0.785046 -12.517010 -4.347266 1.738566 -0.036143 0.074180 -0.002493 0.700047 9.595859 0.556406 -3.741288 3.278447 -0.845065 1.841272 -5.910555 0.854113 0.023929 -0.093384 0.008006
-53.457663 93.036518 64.553212 -5.515449 -5.637535 -0.116354 0.307564 2.851072 -0.191468 0.151384 1.268392 -0.113663 0.151384 1.268392 -0.113663 0.113769 0.951266 -0.085558 -0.565178 17.312086 1.447477 -1.542824 -4.007451 2.869507 -0.191209 0.574859 10.520592 -4.590919 -0.848924 73.035373 12.998919 8.311438 7.688933 -4.391488 -0.775738 -4.211223 -1.298161 0.394854 -6.085023 -3.679042 -7.504548 -72.612996 -12.271599 21.503055 -16.228312 3.947752 2.613858 13.385541 -8.804339 8.332610 -1.150346 0.116051 2.949413 0.763048 -12.486073 -4.352742 1.734826 -0.037247 0.075296 0.004247 0.707100 9.586678 0.564591 -3.749582 3.285870 -0.856188 1.829240 -5.906022 0.848585 0.023859 -0.093499 0.009836
-53.468114 93.036817 64.544681 -5.505401 -5.635883 -0.108691 0.304703 2.856683 -0.179340 0.149823 1.270882 -0.108558 0.149823 1.270882 -0.108558 0.112589 0.953135 -0.081727 -0.564718 17.289030 1.437014 -1.538990 -4.050547 2.850542 -0.195000 0.527994 10.527818 -4.543716 -0.847482 73.065360 13.043968 8.406210 7.699152 -4.390943 -0.756107 -4.266917 -1.306394 0.366536 -6.120730 -3.717849 -7.489898 -72.634421 -12.402222 21.680245 -16.305377 3.946028 2.638735 13.409293 -8.817765 8.316446 -1.147342 0.124716 2.964498 0.752298 -12.508487 -4.352972 1.729435 -0.037046 0.070657 0.005386 0.713859 9.571158 0.571490 -3.764837 3.298346 -0.867434 1.828945 -5.903568 0.850860 0.022491 -0.095629 0.006076
-53.478251 93.036414 64.533600 -5.488248 -5.628386 -0.120850 0.302903 2.863901 -0.156732 0.150355 1.274608 -0.106371 0.150355 1.274608 -0.106371 0.112983 0.955930 -0.080088 -0.565802 17.264555 1.429158 -1.538940 -4.096164 2.836953 -0.206439 0.481024 10.550717 -4.507598 -0.865457 73.097041 13.082193 8.486468 7.692813 -4.391318 -0.740118 -4.332096 -1.344822 0.331126 -6.123716 -3.735667 -7.490880 -72.665913 -12.502183 21.806481 -16.378030 3.948127 2.653698 13.431869 -8.819212 8.295765 -1.119023 0.108072 2.984448 0.729133 -12.509567 -4.371614 1.729511 -0.041938 0.084026 0.008122 0.721009 9.560229 0.598937 -3.772971 3.285677 -0.878277 1.816418 -5.873776 0.853913 0.023131 -0.112740 0.003302
-53.484062 93.036464 64.528507 -5.474962 -5.626474 -0.109823 0.284412 2.862388 -0.140867 0.141948 1.273661 -0.099920 0.141948 1.273661 -0.099920 0.106665 0.955223 -0.075233 -0.552184 17.250424 1.407172 -1.506565 -4.123367 2.791937 -0.172056 0.464510 10.538705 -4.491311 -0.873573 73.096394 13.133601 8.557827 7.720832 -4.401606 -0.731112 -4.408846 -1.330313 0.321366 -6.169281 -3.756256 -7.480919 -72.676245 -12.604627 21.907787 -16.457609 3.939400 2.672345 13.449377 -8.809356 8.278615 -1.125927 0.084896 3.007410 0.722540 -12.506307 -4.375780 1.731380 -0.043112 0.078509 0.006457 0.718347 9.551225 0.593069 -3.770469 3.291434 -0.878107 1.804115 -5.873368 0.848326 0.024097 -0.115006 0.005551
-53.493306 93.034894 64.519371 -5.467176 -5.620947 -0.094332 0.267073 2.875663 -0.121740 0.134637 1.279589 -0.092238 0.134637 1.279589 -0.092238 0.101166 0.959671 -0.069457 -0.547569 17.226453 1.380657 -1.489508 -4.168683 2.741864 -0.151593 0.409490 10.511654 -4.470346 -0.881593 73.103477 13.170185 8.583639 7.741786 -4.423185 -0.711023 -4.465694 -1.310941 0.274230 -6.234933 -3.781113 -7.485403 -72.668432 -12.698172 22.002026 -16.546500 3.938845 2.679697 13.467574 -8.779051 8.262490 -1.125513 0.047621 3.017973 0.706276 -12.501932 -4.386451 1.725210 -0.043122 0.086064 0.011028 0.724612 9.528075 0.586118 -3.772514 3.312875 -0.875995 1.790180 -5.883155 0.839027 0.026519 -0.112457 0.006650
